# Blender 5.0.1
# www.blender.org
mtllib Untitled.mtl
o Cube_Cube.001
v -0.689188 -0.092033 1.507607
v -1.005177 0.320393 -1.405301
v -0.814923 -0.380145 -1.531840
v 0.000000 0.758715 -0.969489
v 0.000000 -0.670513 -2.007671
v 0.000000 0.310511 2.243864
v 0.000000 -0.176117 2.084735
v -2.773180 0.028957 1.380485
v -0.879063 -0.002208 -2.954697
v -0.000000 0.019909 2.616025
v 0.000000 0.016827 -3.926927
v -1.205628 -0.244542 -0.171446
v 0.000000 -0.795363 0.116735
v -0.000000 0.873445 0.305049
v -2.829135 0.036887 0.191893
v -1.895545 0.034754 -1.307437
v -0.660487 0.220274 -2.657496
v -0.446363 0.458444 -2.062988
v 0.000000 0.460373 -2.372527
v 0.000000 0.138658 -3.341895
v -1.730887 0.045056 1.979768
v 0.000000 -0.168493 -3.493814
v -1.216764 0.469233 1.276626
v -1.730837 0.329763 1.274116
v -1.455531 0.326814 1.603612
v -1.591511 0.381502 0.278949
v -1.079530 0.553524 0.293986
v -1.280498 0.469001 0.017509
v -2.228042 1.001794 1.555029
v -2.132327 1.046334 0.998411
v 0.689188 -0.092033 1.507607
v 1.005177 0.320393 -1.405301
v 0.814923 -0.380145 -1.531840
v 2.773180 0.028957 1.380485
v 0.879063 -0.002208 -2.954697
v 1.205628 -0.244542 -0.171446
v 2.829135 0.036887 0.191893
v 1.895545 0.034754 -1.307437
v 0.660487 0.220274 -2.657496
v 0.446363 0.458444 -2.062988
v 1.730887 0.045056 1.979768
v 1.216764 0.469233 1.276626
v 1.730837 0.329763 1.274116
v 1.455531 0.326814 1.603612
v 1.591511 0.381502 0.278949
v 1.079530 0.553524 0.293986
v 1.280498 0.469001 0.017509
v 2.228042 1.001794 1.555029
v 2.132327 1.046334 0.998411
vn -0.3891 -0.8945 -0.2201
vn -0.0660 -0.9878 0.1413
vn -0.4481 -0.8674 0.2166
vn -0.2501 0.9435 0.2174
vn -0.3575 0.9278 -0.1068
vn -0.3573 0.9276 -0.1089
vn -0.3579 0.9276 -0.1068
vn -0.2045 0.8494 0.4865
vn -0.3198 0.9221 -0.2180
vn -0.3174 0.9349 -0.1591
vn -0.2544 0.9538 -0.1597
vn -0.3633 -0.9301 -0.0547
vn -0.0643 -0.9919 0.1099
vn -0.5914 -0.6417 0.4884
vn -0.1957 -0.9732 -0.1205
vn -0.2395 0.9505 -0.1979
vn -0.5390 0.8148 -0.2135
vn -0.3749 -0.8698 0.3209
vn -0.2100 0.7706 0.6017
vn -0.3451 -0.8953 0.2817
vn -0.2684 0.8549 0.4439
vn -0.1469 0.9675 -0.2057
vn -0.0959 0.9559 0.2775
vn -0.3347 0.9283 -0.1617
vn -0.3336 0.9290 -0.1603
vn -0.3365 0.9277 -0.1616
vn -0.4101 -0.9117 -0.0269
vn -0.1705 -0.9854 0.0015
vn -0.2828 0.9553 -0.0865
vn -0.3603 -0.9328 -0.0105
vn -0.3169 0.8563 -0.4079
vn -0.0661 -0.9878 0.1409
vn -0.2843 0.9578 0.0425
vn -0.3834 -0.8491 -0.3633
vn -0.2690 0.9631 0.0124
vn -0.8384 -0.5254 -0.1447
vn 0.1605 0.9052 -0.3934
vn 0.4917 0.6076 0.6237
vn 0.4932 0.8563 0.1533
vn -0.6633 0.2308 -0.7119
vn -0.2754 0.9611 0.0194
vn -0.3686 0.9204 -0.1305
vn -0.1284 0.9401 0.3157
vn -0.2823 0.9555 -0.0860
vn -0.8254 -0.5335 -0.1846
vn 0.4964 0.8563 0.1428
vn 0.3891 -0.8945 -0.2201
vn 0.0660 -0.9878 0.1413
vn 0.4481 -0.8674 0.2166
vn 0.2501 0.9435 0.2174
vn 0.3575 0.9278 -0.1069
vn 0.3579 0.9276 -0.1068
vn 0.3573 0.9276 -0.1089
vn 0.2045 0.8494 0.4865
vn 0.3198 0.9221 -0.2180
vn 0.3174 0.9349 -0.1591
vn 0.2544 0.9538 -0.1597
vn 0.3633 -0.9301 -0.0547
vn 0.0643 -0.9919 0.1099
vn 0.5914 -0.6417 0.4884
vn 0.1957 -0.9732 -0.1205
vn 0.2395 0.9505 -0.1979
vn 0.5390 0.8148 -0.2135
vn 0.3749 -0.8698 0.3209
vn 0.2100 0.7706 0.6017
vn 0.3451 -0.8953 0.2817
vn 0.2684 0.8549 0.4439
vn 0.1469 0.9675 -0.2057
vn 0.0959 0.9559 0.2775
vn 0.3347 0.9283 -0.1617
vn 0.3367 0.9276 -0.1616
vn 0.3338 0.9289 -0.1606
vn 0.4101 -0.9117 -0.0269
vn 0.1705 -0.9854 0.0015
vn 0.2828 0.9553 -0.0865
vn 0.3603 -0.9328 -0.0105
vn 0.3169 0.8563 -0.4079
vn 0.0661 -0.9878 0.1409
vn 0.2843 0.9578 0.0425
vn 0.3834 -0.8491 -0.3633
vn -0.0451 -0.8034 -0.5937
vn 0.1830 -0.9432 0.2774
vn 0.1231 -0.9901 0.0678
vn -0.6510 -0.4643 -0.6005
vn -0.5384 -0.8091 0.2356
vn -0.1512 -0.9747 -0.1646
vn -0.1830 -0.9432 0.2774
vn -0.5689 -0.7218 -0.3942
vn -0.1230 -0.9901 0.0677
vn 0.3665 0.7750 -0.5148
vn 0.2363 0.9440 0.2302
vn 0.4017 0.7947 -0.4551
vn -0.1905 0.9202 -0.3420
vn -0.4658 0.8323 -0.3003
vn -0.2226 0.9154 -0.3355
vn 0.2690 0.9631 0.0124
vn 0.8384 -0.5254 -0.1447
vn -0.1605 0.9052 -0.3934
vn -0.4917 0.6076 0.6237
vn -0.4932 0.8563 0.1533
vn 0.6633 0.2308 -0.7119
vn 0.2754 0.9611 0.0194
vn 0.3686 0.9204 -0.1305
vn 0.4658 0.8323 -0.3003
vn 0.1904 0.9202 -0.3420
vn 0.2226 0.9154 -0.3355
vn 0.1284 0.9401 0.3157
vn 0.2823 0.9555 -0.0860
vn -0.3474 0.7947 -0.4977
vn 0.0937 0.9858 -0.1394
vn -0.2446 0.9242 -0.2932
vn -0.4017 0.7947 -0.4551
vn -0.2363 0.9440 0.2302
vn -0.3664 0.7750 -0.5148
vn 0.2446 0.9242 -0.2932
vn -0.0938 0.9858 -0.1395
vn 0.3474 0.7947 -0.4977
vn 0.8254 -0.5335 -0.1846
vn -0.4964 0.8563 0.1428
vn 0.5384 -0.8091 0.2356
vn 0.4836 -0.6472 -0.5892
vn 0.1512 -0.9747 -0.1646
s 0
usemtl 0
f 16//1 9//1 3//1
f 13//3 1//3 12//3
f 4//5 18//6 2//7
f 6//8 25//8 21//8
f 2//9 9//9 16//9
f 28//10 2//10 16//10
f 9//16 20//16 11//16
f 2//17 17//17 9//17
f 10//18 1//18 7//18
f 6//19 21//19 10//19
f 13//20 7//20 1//20
f 4//22 19//22 18//22
f 23//23 6//23 14//23
f 28//24 4//25 2//26
f 13//27 12//27 3//27
f 27//29 4//29 28//29
f 16//30 3//30 12//30
f 9//31 17//31 20//31
f 23//33 14//33 27//33
f 9//34 11//34 22//34
f 26//42 28//42 16//42
f 23//43 25//43 6//43
f 27//44 14//44 4//44
f 38//47 33//47 35//47
f 13//49 36//49 31//49
f 4//51 32//52 40//53
f 6//54 41//54 44//54
f 32//55 38//55 35//55
f 47//56 38//56 32//56
f 35//62 11//62 20//62
f 32//63 35//63 39//63
f 10//64 7//64 31//64
f 6//65 10//65 41//65
f 13//66 31//66 7//66
f 4//68 40//68 19//68
f 42//69 14//69 6//69
f 47//70 32//71 4//72
f 13//73 33//73 36//73
f 46//75 47//75 4//75
f 38//76 36//76 33//76
f 35//77 20//77 39//77
f 42//79 46//79 14//79
f 35//80 22//80 11//80
f 35//81 33//82 22//83
f 3//87 9//88 22//89
f 45//103 38//103 47//103
f 42//107 6//107 44//107
f 46//108 4//108 14//108
usemtl 21
f 21//2 8//2 1//2
f 24//4 8//4 25//4
f 26//11 16//11 15//11
f 13//12 3//12 5//12
f 8//13 12//13 1//13
f 24//14 25//14 29//14
f 16//15 12//15 15//15
f 25//21 8//21 21//21
f 8//28 15//28 12//28
f 10//32 21//32 1//32
f 24//35 26//35 15//35
f 24//36 30//36 26//36
f 27//37 28//37 30//37
f 25//38 23//38 29//38
f 23//39 30//39 29//39
f 28//40 26//40 30//40
f 24//41 15//41 8//41
f 24//45 29//45 30//45
f 23//46 27//46 30//46
f 41//48 31//48 34//48
f 43//50 44//50 34//50
f 45//57 37//57 38//57
f 13//58 5//58 33//58
f 34//59 31//59 36//59
f 43//60 48//60 44//60
f 38//61 37//61 36//61
f 44//67 41//67 34//67
f 34//74 36//74 37//74
f 10//78 31//78 41//78
f 5//84 3//85 22//86
f 43//96 37//96 45//96
f 43//97 45//97 49//97
f 46//98 49//98 47//98
f 44//99 48//99 42//99
f 42//100 48//100 49//100
f 47//101 49//101 45//101
f 43//102 34//102 37//102
f 43//118 49//118 48//118
f 42//119 49//119 46//119
f 33//120 5//121 22//122
usemtl 253
f 40//90 32//91 39//92
f 20//93 17//94 19//95
f 39//104 20//105 19//106
f 17//109 18//110 19//111
f 17//112 2//113 18//114
f 19//115 40//116 39//117
