# Blender 5.0.1
# www.blender.org
o Cube
v 1.534159 1.534159 -4.000000
v 2.217937 3.316222 -0.567152
v 3.316222 2.217937 -0.567152
v 2.217937 -3.316222 -0.567152
v 1.534159 -1.534159 -4.000000
v 3.316222 -2.217937 -0.567152
v 3.316222 2.217937 0.567152
v 2.217937 3.316222 0.567152
v 1.534159 1.534159 4.000000
v 3.316222 -2.217937 0.567152
v 1.534159 -1.534159 4.000000
v 2.217937 -3.316222 0.567152
v -1.534159 1.534159 -4.000000
v -3.316222 2.217937 -0.567152
v -2.217937 3.316222 -0.567152
v -3.316222 -2.217937 -0.567152
v -1.534159 -1.534159 -4.000000
v -2.217937 -3.316222 -0.567152
v -3.316222 2.217937 0.567152
v -1.534159 1.534159 4.000000
v -2.217937 3.316222 0.567152
v -2.217937 -3.316222 0.567152
v -1.534159 -1.534159 4.000000
v -3.316222 -2.217937 0.567152
v 1.534159 4.000000 -1.534159
v 4.000000 1.534159 -1.534159
v 4.000000 -1.534159 -1.534159
v 1.534159 -4.000000 -1.534159
v 4.000000 1.534159 1.534159
v 1.534159 4.000000 1.534159
v 1.534159 -4.000000 1.534159
v 4.000000 -1.534159 1.534159
v -4.000000 1.534159 -1.534159
v -1.534159 4.000000 -1.534159
v -1.534159 -4.000000 -1.534159
v -4.000000 -1.534159 -1.534159
v -1.534159 4.000000 1.534159
v -4.000000 1.534159 1.534159
v -4.000000 -1.534159 1.534159
v -1.534159 -4.000000 1.534159
v 4.000000 0.511386 -1.534159
v 4.000000 -0.511386 -1.534159
v 1.534159 -0.511386 -4.000000
v 1.534159 0.511386 -4.000000
v -1.534159 -0.511386 4.000000
v -1.534159 0.511386 4.000000
v -4.000000 0.511386 1.534159
v -4.000000 -0.511386 1.534159
v 1.534159 0.511386 4.000000
v 1.534159 -0.511386 4.000000
v 4.000000 -0.511386 1.534159
v 4.000000 0.511386 1.534159
v -1.534159 0.511386 -4.000000
v -1.534159 -0.511386 -4.000000
v -4.000000 -0.511386 -1.534159
v -4.000000 0.511386 -1.534159
v 5.237079 0.511386 -2.008628
v 5.237079 -0.511386 -2.008628
v 2.008628 -0.511386 -5.237079
v 2.008628 0.511386 -5.237079
v -2.008628 -0.511386 5.237079
v -2.008628 0.511386 5.237079
v -5.237079 0.511386 2.008628
v -5.237079 -0.511386 2.008628
v 2.008628 0.511386 5.237079
v 2.008628 -0.511386 5.237079
v 5.237079 -0.511386 2.008628
v 5.237079 0.511386 2.008628
v -2.008628 0.511386 -5.237079
v -2.008628 -0.511386 -5.237079
v -5.237079 -0.511386 -2.008628
v -5.237079 0.511386 -2.008628
vn 0.5774 0.5774 -0.5774
vn 0.5774 -0.5774 -0.5774
vn 0.5774 0.5774 0.5774
vn 0.5774 -0.5774 0.5774
vn -0.5774 0.5774 -0.5774
vn -0.5774 -0.5774 -0.5774
vn -0.5774 0.5774 0.5774
vn -0.5774 -0.5774 0.5774
vn -0.0000 -0.7071 -0.7071
vn 0.7071 -0.0000 -0.7071
vn -0.7071 -0.0000 0.7071
vn 0.7071 -0.0000 0.7071
vn -0.7071 -0.0000 -0.7071
vn -0.0000 0.7071 0.7071
vn -0.0000 -0.7071 0.7071
vn -0.0000 0.7071 -0.7071
vn -0.0000 -0.0000 -1.0000
vn 1.0000 -0.0000 -0.0000
vn -0.0000 1.0000 -0.0000
vn -0.0000 -1.0000 -0.0000
vn -0.0000 -0.0000 1.0000
vn -1.0000 -0.0000 -0.0000
vn 0.7071 0.7071 -0.0000
vn 0.7071 -0.7071 -0.0000
vn -0.7071 0.7071 -0.0000
vn -0.7071 -0.7071 -0.0000
s 0
f 1//1 25//1 26//1
f 28//2 5//2 27//2
f 29//3 30//3 9//3
f 32//4 11//4 31//4
f 13//5 33//5 34//5
f 36//6 17//6 35//6
f 38//7 20//7 37//7
f 40//8 23//8 39//8
f 35//9 5//9 28//9
f 27//10 43//10 42//10
f 20//11 47//11 46//11
f 11//12 51//12 50//12
f 17//13 55//13 54//13
f 37//14 9//14 30//14
f 31//15 23//15 40//15
f 25//16 13//16 34//16
f 13//17 44//17 53//17
f 26//18 52//18 41//18
f 34//19 30//19 25//19
f 28//20 40//20 35//20
f 9//21 46//21 49//21
f 38//22 56//22 47//22
f 2//23 26//23 25//23
f 6//24 28//24 27//24
f 7//23 30//23 29//23
f 12//24 32//24 31//24
f 14//25 34//25 33//25
f 18//26 36//26 35//26
f 21//25 38//25 37//25
f 24//26 40//26 39//26
f 18//26 40//26 22//26
f 24//26 36//26 16//26
f 2//23 30//23 8//23
f 7//23 26//23 3//23
f 21//25 34//25 15//25
f 14//25 38//25 19//25
f 12//24 28//24 4//24
f 6//24 32//24 10//24
f 48//22 36//22 39//22
f 43//20 70//20 59//20
f 50//21 23//21 11//21
f 47//19 62//19 46//19
f 42//18 32//18 27//18
f 41//19 68//19 57//19
f 54//17 5//17 17//17
f 45//20 64//20 48//20
f 53//13 33//13 13//13
f 51//20 58//20 67//20
f 49//12 29//12 9//12
f 51//20 66//20 50//20
f 45//11 39//11 23//11
f 49//19 62//19 65//19
f 41//10 1//10 26//10
f 49//19 68//19 52//19
f 63//22 71//22 64//22
f 65//21 61//21 66//21
f 57//18 67//18 58//18
f 69//17 59//17 70//17
f 70//13 72//13 69//13
f 66//12 68//12 65//12
f 62//11 64//11 61//11
f 58//10 60//10 57//10
f 41//19 60//19 44//19
f 53//19 60//19 69//19
f 55//20 64//20 71//20
f 43//20 58//20 42//20
f 53//19 72//19 56//19
f 47//19 72//19 63//19
f 55//20 70//20 54//20
f 45//20 66//20 61//20
f 35//9 17//9 5//9
f 27//10 5//10 43//10
f 20//11 38//11 47//11
f 11//12 32//12 51//12
f 17//13 36//13 55//13
f 37//14 20//14 9//14
f 31//15 11//15 23//15
f 25//16 1//16 13//16
f 13//17 1//17 44//17
f 26//18 29//18 52//18
f 34//19 37//19 30//19
f 28//20 31//20 40//20
f 9//21 20//21 46//21
f 38//22 33//22 56//22
f 2//23 3//23 26//23
f 6//24 4//24 28//24
f 7//23 8//23 30//23
f 12//24 10//24 32//24
f 14//25 15//25 34//25
f 18//26 16//26 36//26
f 21//25 19//25 38//25
f 24//26 22//26 40//26
f 18//26 35//26 40//26
f 24//26 39//26 36//26
f 2//23 25//23 30//23
f 7//23 29//23 26//23
f 21//25 37//25 34//25
f 14//25 33//25 38//25
f 12//24 31//24 28//24
f 6//24 27//24 32//24
f 48//22 55//22 36//22
f 43//20 54//20 70//20
f 50//21 45//21 23//21
f 47//19 63//19 62//19
f 42//18 51//18 32//18
f 41//19 52//19 68//19
f 54//17 43//17 5//17
f 45//20 61//20 64//20
f 53//13 56//13 33//13
f 51//20 42//20 58//20
f 49//12 52//12 29//12
f 51//20 67//20 66//20
f 45//11 48//11 39//11
f 49//19 46//19 62//19
f 41//10 44//10 1//10
f 49//19 65//19 68//19
f 63//22 72//22 71//22
f 65//21 62//21 61//21
f 57//18 68//18 67//18
f 69//17 60//17 59//17
f 70//13 71//13 72//13
f 66//12 67//12 68//12
f 62//11 63//11 64//11
f 58//10 59//10 60//10
f 41//19 57//19 60//19
f 53//19 44//19 60//19
f 55//20 48//20 64//20
f 43//20 59//20 58//20
f 53//19 69//19 72//19
f 47//19 56//19 72//19
f 55//20 71//20 70//20
f 45//20 50//20 66//20
